<?xml version="1.0" ?>
<svg xmlns="http://www.w3.org/2000/svg" version="1.1" width="1024" height="1024" viewBox="0 0 1024 1024">
  <rect x="26" y="117" width="68" height="68" fill="#3B82F6"/>
  <rect x="127" y="117" width="67" height="68" fill="#3B82F6"/>
  <rect x="227" y="117" width="571" height="68" fill="#3B82F6"/>
  <rect x="832" y="118" width="66" height="66" fill="#3B82F6"/>
  <rect x="932" y="118" width="67" height="66" fill="#3B82F6"/>
  <rect x="127" y="218" width="67" height="67" fill="#3B82F6"/>
  <rect x="227" y="218" width="571" height="67" fill="#3B82F6"/>
  <rect x="831" y="218" width="68" height="67" fill="#3B82F6"/>
  <rect x="932" y="218" width="66" height="67" fill="#3B82F6"/>
  <rect x="26" y="318" width="68" height="68" fill="#3B82F6"/>
  <rect x="127" y="318" width="67" height="68" fill="#3B82F6"/>
  <rect x="227" y="318" width="269" height="68" fill="#3B82F6"/>
  <rect x="529" y="318" width="68" height="68" fill="#3B82F6"/>
  <rect x="730" y="318" width="68" height="68" fill="#3B82F6"/>
  <rect x="831" y="318" width="67" height="68" fill="#3B82F6"/>
  <rect x="630" y="319" width="67" height="66" fill="#3B82F6"/>
  <rect x="26" y="419" width="68" height="67" fill="#3B82F6"/>
  <rect x="127" y="419" width="67" height="67" fill="#3B82F6"/>
  <rect x="227" y="419" width="571" height="67" fill="#3B82F6"/>
  <rect x="832" y="419" width="66" height="67" fill="#3B82F6"/>
  <rect x="26" y="519" width="68" height="68" fill="#3B82F6"/>
  <rect x="127" y="519" width="67" height="68" fill="#3B82F6"/>
  <rect x="227" y="519" width="571" height="68" fill="#3B82F6"/>
  <rect x="831" y="519" width="67" height="68" fill="#3B82F6"/>
  <rect x="932" y="519" width="67" height="68" fill="#3B82F6"/>
  <rect x="227" y="620" width="269" height="68" fill="#3B82F6"/>
  <rect x="630" y="620" width="67" height="67" fill="#3B82F6"/>
  <rect x="730" y="620" width="68" height="67" fill="#3B82F6"/>
  <rect x="127" y="621" width="67" height="66" fill="#3B82F6"/>
  <rect x="530" y="621" width="66" height="66" fill="#3B82F6"/>
  <rect x="832" y="621" width="66" height="66" fill="#3B82F6"/>
  <rect x="932" y="621" width="66" height="66" fill="#3B82F6"/>
  <rect x="227" y="720" width="269" height="68" fill="#3B82F6"/>
  <rect x="26" y="721" width="68" height="67" fill="#3B82F6"/>
  <rect x="127" y="721" width="67" height="67" fill="#3B82F6"/>
  <rect x="529" y="721" width="68" height="67" fill="#3B82F6"/>
  <rect x="630" y="721" width="67" height="67" fill="#3B82F6"/>
  <rect x="730" y="721" width="68" height="67" fill="#3B82F6"/>
  <rect x="832" y="721" width="66" height="66" fill="#3B82F6"/>
  <rect x="26" y="821" width="68" height="67" fill="#3B82F6"/>
  <rect x="127" y="821" width="67" height="67" fill="#3B82F6"/>
  <rect x="227" y="821" width="269" height="68" fill="#3B82F6"/>
  <rect x="630" y="821" width="67" height="67" fill="#3B82F6"/>
  <rect x="730" y="821" width="68" height="68" fill="#3B82F6"/>
  <rect x="831" y="821" width="67" height="67" fill="#3B82F6"/>
  <rect x="932" y="821" width="67" height="67" fill="#3B82F6"/>
  <rect x="530" y="822" width="66" height="66" fill="#3B82F6"/>
</svg>
