<svg
	fill="currentColor"
	height="100%"
	preserveAspectRatio="xMidYMid meet"
	stroke="none"
	stroke-width="100"
	viewBox="0 0 512 512"
	width="100%"
	xmlns="http://www.w3.org/2000/svg"
>
	<g transform="translate(0,512) scale(0.1,-0.1)">
		<path
			d="M875 4790 c-139 -19 -252 -76 -361 -185 -60 -60 -90 -99 -118 -155
-69 -142 -69 -137 -73 -637 l-5 -453 1041 0 1041 0 0 720 0 720 -732 -1 c-403
-1 -760 -5 -793 -9z"
		/>
		<path
			d="M2720 3280 l0 -1520 1040 0 1040 0 0 1218 c-1 989 -3 1231 -14 1294
-35 193 -164 366 -338 454 -141 71 -99 68 -955 72 l-773 3 0 -1521z"
		/>
		<path
			d="M322 1948 c4 -1215 -1 -1132 72 -1275 90 -176 261 -304 454 -339 61
-10 233 -13 815 -14 l737 0 0 1360 0 1360 -1040 0 -1041 0 3 -1092z"
		/>
		<path
			d="M2720 880 l0 -561 778 3 777 3 80 28 c204 72 341 209 411 412 28 79
28 82 32 378 l4 297 -1041 0 -1041 0 0 -560z"
		/>
	</g>
</svg>