<svg
	fill="currentColor"
	height="100%"
	preserveAspectRatio="xMidYMid meet"
	stroke="none"
	stroke-width="100"
	viewBox="0 0 512 512"
	width="100%"
	xmlns="http://www.w3.org/2000/svg"
>
	<path
		d="M80,0C44.6,0,16,28.6,16,64v384c0,35.4,28.6,64,64,64h352c35.4,0,64-28.6,64-64V64c0-35.4-28.6-64-64-64H80z
		 M240,64c-17.7,0-32,14.3-32,32v96c0,17.7,14.3,32,32,32h32c17.7,0,32-14.3,32-32V96c0-17.7-14.3-32-32-32H240z M80,96
		c0-17.7,14.3-32,32-32h32c17.7,0,32,14.3,32,32v224c0,17.7-14.3,32-32,32h-32c-17.7,0-32-14.3-32-32V96z M368,64
		c-17.7,0-32,14.3-32,32v320c0,17.7,14.3,32,32,32h32c17.7,0,32-14.3,32-32V96c0-17.7-14.3-32-32-32H368z"
		fill-rule="evenodd"
	/>
</svg>