<svg
	fill="currentColor"
	height="100%"
	preserveAspectRatio="xMidYMid meet"
	stroke="none"
	stroke-width="100"
	viewBox="0 0 512 512"
	width="100%"
	xmlns="http://www.w3.org/2000/svg"
>
	<g transform="translate(0,512) scale(0.1,-0.1)">
		<path
			d="M861 4949 c-326 -43 -588 -276 -674 -599 l-22 -85 0 -1715 0 -1715
28 -88 c33 -105 65 -171 122 -252 106 -149 271 -261 460 -311 67 -18 142 -19
1780 -19 1945 0 1778 -7 1968 88 88 43 115 64 198 146 85 85 102 108 147 201
95 194 87 14 87 1960 0 1643 -1 1718 -19 1785 -50 189 -162 354 -311 460 -81
57 -147 89 -252 122 l-88 28 -1680 1 c-924 1 -1709 -2 -1744 -7z m2531 -980
c120 -25 171 -60 349 -238 177 -176 206 -219 230 -332 26 -119 -8 -285 -79
-396 -17 -26 -404 -420 -859 -874 -964 -963 -848 -869 -1178 -945 -179 -41
-210 -46 -290 -41 -77 3 -102 9 -167 40 -123 56 -209 159 -244 291 -24 90 -17
176 31 386 76 328 -21 208 963 1192 766 766 853 850 907 875 112 51 226 65
337 42z"
		/>
		<path
			d="M3275 3653 c-84 -19 -85 -20 -893 -827 -443 -441 -812 -817 -822
-838 -11 -20 -38 -118 -61 -219 -36 -159 -40 -186 -30 -220 12 -40 49 -73 93
-84 33 -8 375 68 427 95 20 10 397 380 838 822 794 795 802 804 818 860 27 94
17 112 -143 271 -76 75 -145 137 -153 137 -8 0 -23 2 -34 4 -11 2 -29 2 -40
-1z"
		/>
	</g>
</svg>