<svg
	fill="currentColor"
	height="100%"
	preserveAspectRatio="xMidYMid meet"
	stroke="none"
	stroke-width="100"
	viewBox="0 0 512 512"
	width="100%"
	xmlns="http://www.w3.org/2000/svg"
>
	<g transform="translate(0,512) scale(0.1,-0.1)">
		<path
			d="M875 4790 c-140 -19 -252 -76 -361 -185 -66 -65 -89 -96 -122 -165
-72 -152 -67 -17 -67 -1885 0 -1884 -5 -1736 69 -1882 91 -179 262 -305 459
-339 70 -12 342 -14 1753 -12 l1669 3 80 28 c204 72 340 208 412 412 l28 80 3
1669 c3 1841 5 1768 -59 1907 -62 134 -164 241 -291 305 -148 75 7 69 -1848
70 -916 1 -1692 -2 -1725 -6z m2733 -1457 c62 -47 85 -117 62 -189 -10 -31
-143 -169 -654 -682 -353 -353 -661 -656 -685 -672 -55 -37 -119 -40 -169 -10
-19 12 -180 165 -358 342 -226 224 -330 334 -345 365 -49 100 10 215 118 230
83 11 99 -1 391 -291 l272 -270 588 586 c361 362 600 593 622 603 45 20 123
14 158 -12z"
		/>
	</g>
</svg>