<svg
	fill="currentColor"
	height="100%"
	preserveAspectRatio="xMidYMid meet"
	viewBox="0 0 800 800"
	width="100%"
	xmlns="http://www.w3.org/2000/svg"
>
	<path
		d="M323,266.8h154c8.5,0,15.4-6.9,15.4-15.4S485.5,236,477,236H323c-8.5,0-15.4,6.9-15.4,15.4
			C307.6,259.9,314.5,266.8,323,266.8z"
	/>
	<path
		d="M477,312.9H323c-8.5,0-15.4,6.9-15.4,15.4s6.9,15.4,15.4,15.4h154c8.5,0,15.4-6.9,15.4-15.4
			C492.4,319.8,485.5,312.9,477,312.9z"
	/>
	<path d="M477,389.9H323c-8.5,0-15.4,6.9-15.4,15.4s6.9,15.4,15.4,15.4h154c8.5,0,15.4-6.9,15.4-15.4S485.5,389.9,477,389.9z" />
	<path d="M477,466.9H323c-8.5,0-15.4,6.9-15.4,15.4s6.9,15.4,15.4,15.4h154c8.5,0,15.4-6.9,15.4-15.4S485.5,466.9,477,466.9z" />
	<path
		d="M477,543.9H323c-8.5,0-15.4,6.9-15.4,15.4c0,8.5,6.9,15.4,15.4,15.4h154c8.5,0,15.4-6.9,15.4-15.4
			C492.4,550.8,485.5,543.9,477,543.9z"
	/>

	<path
		d="M319.4,195.4c-3.7,0-7.2-2-8.9-5.1c-1.5-2.8-1.5-6.2,0.1-9c0,0,74.1-122.1,74.1-122.1c3.9-6.8,9.3-10.5,15.3-10.5
		c5.9,0,11.4,3.7,15.3,10.5l75.7,122c0,0.1,0.1,0.1,0.1,0.2c1.6,2.9,1.7,6.2,0.1,9c-1.7,3.1-5.2,5.1-8.9,5.1c0,0,0,0,0,0
		c-2.8,0-5.4-1.1-7.3-3.2l-69.9-75.6c-2.3-2.5-6.3-2.5-8.6,0l-69.9,75.6C324.8,194.3,322.2,195.4,319.4,195.4z"
	/>
	<path
		d="M482.4,615.2c3.7,0,7.2,2,8.9,5.1c1.5,2.8,1.5,6.2-0.1,9c0,0-74.1,122.1-74.1,122.1c-3.9,6.8-9.3,10.5-15.3,10.5
		c-5.9,0-11.4-3.7-15.3-10.5l-75.7-122c0-0.1-0.1-0.1-0.1-0.2c-1.6-2.9-1.7-6.2-0.1-9c1.7-3.1,5.2-5.1,8.9-5.1c0,0,0,0,0,0
		c2.8,0,5.4,1.1,7.3,3.2l69.9,75.6c2.3,2.5,6.3,2.5,8.6,0l69.9-75.6C477,616.4,479.6,615.2,482.4,615.2z"
	/>
</svg>