<svg
	fill="currentColor"
	height="100%"
	preserveAspectRatio="xMidYMid meet"
	stroke="currentColor"
	stroke-width="100"
	viewBox="0 0 512 512"
	width="100%"
	xmlns="http://www.w3.org/2000/svg"
>
	<g transform="translate(0,512) scale(0.1,-0.1)">
		<path
			d="M1290 4949 c-302 -39 -565 -171 -771 -385 -170 -177 -277 -379 -331
-625 l-23 -104 0 -1270 c0 -987 3 -1285 13 -1337 52 -277 167 -495 361 -689
194 -194 412 -309 689 -361 98 -19 2566 -19 2664 0 277 52 495 167 689 361
194 194 309 412 361 689 19 98 19 2566 0 2664 -52 277 -167 495 -361 689 -185
186 -378 291 -651 355 -69 17 -169 18 -1325 20 -687 1 -1279 -2 -1315 -7z
m2645 -342 c175 -54 282 -116 407 -235 153 -146 243 -312 283 -525 22 -118 23
-2441 0 -2570 -66 -377 -340 -669 -727 -774 -57 -16 -172 -18 -1302 -20 -1365
-4 -1314 -6 -1490 58 -223 80 -436 276 -536 491 -16 35 -42 104 -57 153 l-28
90 0 1280 0 1280 23 84 c75 276 264 504 517 626 81 39 198 76 280 88 17 2 595
4 1285 3 l1255 -1 90 -28z"
		/>
		<path
			d="M3554 3513 c-12 -2 -35 -16 -52 -31 -17 -15 -297 -349 -622 -742
-325 -393 -594 -716 -598 -718 -4 -1 -154 183 -332 409 -271 345 -331 415
-365 430 -51 24 -79 23 -132 -1 -76 -34 -110 -120 -77 -196 18 -40 744 -972
796 -1021 28 -26 70 -43 107 -43 71 0 87 17 776 850 367 443 675 823 686 845
24 52 24 81 -3 135 -34 67 -105 99 -184 83z"
		/>
	</g>
</svg>