<svg
	fill="currentColor"
	height="100%"
	preserveAspectRatio="xMidYMid meet"
	stroke="currentColor"
	stroke-width="100"
	viewBox="0 0 512 512"
	width="100%"
	xmlns="http://www.w3.org/2000/svg"
>
	<g transform="translate(0,512) scale(0.1,-0.1)">
		<path
			d="M1926 4944 c-85 -21 -168 -69 -230 -134 -45 -47 -74 -97 -163 -274
l-108 -216 -565 0 -566 0 -44 -22 c-33 -17 -51 -35 -67 -68 -29 -56 -29 -84
-1 -140 31 -60 88 -90 174 -90 l62 0 6 -37 c3 -21 96 -760 206 -1643 110 -883
206 -1634 215 -1670 48 -207 210 -382 422 -457 l78 -28 1210 0 c1145 0 1213 1
1270 18 207 64 368 215 435 410 16 47 73 476 230 1732 116 919 210 1671 210
1673 0 1 28 2 63 2 87 0 144 29 174 90 29 56 29 84 1 140 -17 33 -35 51 -68
68 l-44 22 -563 0 -562 0 -107 211 c-121 238 -176 311 -282 367 -113 61 -129
62 -757 61 -456 -1 -582 -3 -629 -15z m1222 -318 c44 -23 67 -55 131 -183 l61
-123 -780 0 c-429 0 -780 2 -780 5 0 13 105 214 127 243 14 19 39 42 57 53 30
18 57 19 594 19 464 0 568 -2 590 -14z m1228 -663 c-3 -21 -96 -760 -206
-1643 -224 -1793 -202 -1662 -298 -1752 -28 -27 -71 -54 -105 -67 l-58 -21
-1149 0 -1149 0 -58 22 c-73 27 -153 101 -182 167 -17 40 -59 357 -221 1653
-110 881 -203 1620 -206 1641 l-6 37 1822 0 1822 0 -6 -37z"
		/>
		<path
			d="M1770 3418 c-33 -17 -51 -35 -68 -68 l-22 -45 2 -1080 3 -1080 23
-33 c13 -18 42 -42 65 -53 75 -39 173 -4 211 74 14 32 16 134 16 1104 l0 1069
-22 44 c-25 48 -89 90 -138 90 -14 0 -46 -10 -70 -22z"
		/>
		<path
			d="M3232 3433 c-34 -7 -98 -75 -105 -113 -4 -18 -7 -365 -7 -772 0 -824
-3 -781 68 -836 51 -39 133 -39 184 0 71 55 68 11 68 845 l0 749 -22 44 c-35
68 -104 99 -186 83z"
		/>
	</g>
</svg>