<svg
	fill="currentColor"
	height="100%"
	preserveAspectRatio="xMidYMid meet"
	stroke-width="0"
	viewBox="0 0 827 659"
	width="100%"
	xmlns="http://www.w3.org/2000/svg"
>
	<g stroke="none" transform="translate(0,659) scale(0.1,-0.1)">
		<path
			d="M1380 6405 c-153 -43 -248 -161 -258 -319 -4 -69 1 -102 63 -386 21
-95 21 -255 0 -335 -45 -173 -131 -290 -450 -615 -133 -135 -262 -275 -288
-311 -148 -209 -214 -466 -188 -737 25 -266 116 -469 298 -662 98 -104 185
-176 429 -353 110 -80 205 -151 212 -159 9 -11 6 -42 -11 -134 l-23 -119 -89
-22 c-50 -13 -227 -54 -395 -93 -441 -102 -453 -106 -501 -149 -38 -34 -42
-42 -47 -94 -4 -55 -3 -58 34 -96 37 -37 47 -40 234 -85 248 -60 513 -114 810
-166 129 -22 243 -44 253 -48 14 -6 -33 -83 -302 -486 -176 -264 -318 -483
-316 -486 3 -4 28 -10 57 -14 29 -4 528 -83 1108 -177 580 -93 1125 -181 1210
-194 85 -14 164 -27 175 -29 14 -3 27 6 46 32 14 20 130 190 259 377 128 187
234 341 235 342 1 2 42 -11 91 -28 261 -89 767 -232 1069 -302 439 -103 744
-158 1195 -217 129 -17 333 -47 453 -67 197 -33 223 -35 272 -24 68 15 128 59
156 112 80 158 -170 334 -731 516 -8 3 21 15 65 28 44 13 105 35 135 48 66 29
201 62 325 78 143 19 502 6 715 -25 96 -14 191 -26 211 -26 118 0 259 114 259
209 0 46 -32 103 -85 149 -55 49 -331 189 -505 257 -69 27 -126 50 -128 51 -2
1 12 38 31 81 86 196 121 357 120 553 -1 264 -63 416 -249 611 -72 75 -85 93
-103 153 -12 38 -21 79 -21 93 0 14 70 222 155 462 85 241 155 450 155 464 0
38 -33 67 -75 67 -20 0 -88 -22 -154 -50 -65 -28 -122 -50 -125 -50 -3 0 -7
255 -8 567 l-3 567 -1095 157 c-602 87 -1201 174 -1330 193 l-235 34 -1225
-410 c-674 -226 -1352 -453 -1507 -505 l-283 -95 0 -804 c0 -442 -3 -804 -7
-804 -5 1 -25 22 -45 48 -20 26 -111 133 -203 237 -91 105 -186 220 -211 256
-62 93 -95 186 -101 285 -13 199 65 364 406 864 316 464 359 529 420 649 72
141 120 262 152 381 19 70 23 111 24 235 0 131 -3 158 -23 216 -44 129 -130
230 -236 280 -79 37 -193 47 -276 24z m4250 -1129 c591 -85 1117 -160 1168
-167 50 -6 92 -15 92 -18 0 -3 -177 -71 -393 -150 -215 -80 -552 -204 -747
-276 -195 -73 -490 -182 -655 -243 -165 -61 -493 -183 -730 -270 -236 -88
-452 -168 -480 -177 l-50 -18 -1040 272 c-572 150 -1047 274 -1055 278 -24 9
2749 933 2785 928 17 -2 514 -74 1105 -159z m1428 -768 l-3 -521 -69 -29 -68
-28 -29 24 c-64 54 -98 43 -176 -58 l-58 -74 -752 -302 -752 -302 -78 68
c-162 141 -321 244 -376 244 -33 0 -62 -35 -90 -110 -57 -152 -90 -360 -107
-675 l-11 -190 -89 -245 c-49 -135 -148 -409 -220 -610 -130 -358 -149 -408
-150 -383 -1 50 -131 2406 -136 2469 -6 80 -6 82 17 89 43 13 558 201 864 314
464 173 724 269 1055 391 284 105 943 349 1125 418 44 16 86 30 93 31 10 1 12
-106 10 -521z m-5039 -187 c414 -107 1050 -273 1534 -401 182 -49 237 -67 237
-79 0 -9 34 -614 75 -1346 41 -731 73 -1330 71 -1332 -2 -2 -345 53 -762 122
-417 69 -937 155 -1154 190 -217 36 -405 67 -417 70 l-23 5 0 1440 c0 792 3
1440 6 1440 3 0 198 -49 433 -109z m5365 -343 c-3 -13 -49 -144 -101 -293 -52
-148 -100 -286 -106 -307 -7 -21 -14 -38 -17 -38 -3 1 -27 67 -53 149 -27 82
-68 193 -93 247 -24 54 -42 99 -41 100 7 7 393 162 405 163 9 1 11 -6 6 -21z
m-894 -414 c-28 -49 -71 -130 -96 -181 l-44 -91 -78 -6 c-416 -31 -633 -78
-867 -191 l-90 -44 -43 43 -43 42 653 260 c359 143 654 259 656 258 2 -1 -20
-42 -48 -90z m672 -1090 c130 -44 212 -191 188 -338 -11 -66 -29 -104 -77
-157 -165 -182 -462 -63 -481 192 -15 218 171 371 370 303z m-1286 -229 c108
-48 169 -143 169 -265 0 -125 -55 -214 -167 -270 -50 -24 -74 -30 -128 -30
-97 0 -155 23 -221 89 -69 69 -93 132 -87 224 13 214 233 341 434 252z m-1352
-356 c9 -47 25 -112 36 -145 l20 -58 -148 -150 c-81 -83 -187 -194 -236 -246
-48 -52 -85 -90 -83 -85 3 6 39 105 80 220 154 430 288 800 294 815 4 8 10
-48 14 -125 4 -77 14 -179 23 -226z m-2133 -579 c432 -71 954 -157 1160 -191
206 -33 376 -62 377 -64 2 -2 -121 -185 -274 -407 -152 -222 -278 -404 -279
-405 -1 -3 -777 121 -1924 306 -238 39 -435 72 -437 74 -2 1 120 188 271 414
244 366 276 410 297 407 13 -3 377 -63 809 -134z"
		/>
		<path
			d="M7006 2395 c-144 -51 -183 -248 -72 -360 93 -92 239 -79 305 28 59
96 45 213 -33 285 -64 59 -126 74 -200 47z"
		/>
		<path
			d="M5655 2171 c-43 -19 -100 -78 -116 -118 -16 -42 -11 -131 10 -172
104 -203 410 -132 411 96 0 64 -10 91 -52 138 -42 48 -99 75 -163 75 -27 0
-68 -9 -90 -19z"
		/>
	</g>
</svg>