<svg
	fill="currentColor"
	height="100%"
	preserveAspectRatio="xMidYMid meet"
	stroke="none"
	stroke-width="100"
	viewBox="0 0 512 512"
	width="100%"
	xmlns="http://www.w3.org/2000/svg"
>
	<g transform="translate(0,512) scale(0.1,-0.1)">
		<path
			d="M2475 4789 c-97 -14 -183 -48 -264 -104 -219 -150 -1635 -1204 -1691
-1259 -109 -107 -171 -236 -191 -399 -6 -51 -9 -468 -7 -1122 3 -960 5 -1045
21 -1100 69 -231 239 -399 468 -462 60 -17 166 -18 1759 -18 l1695 0 81 27
c199 68 354 223 421 422 l28 81 0 1110 0 1110 -27 80 c-37 108 -91 197 -163
269 -53 54 -1601 1204 -1730 1285 -102 65 -273 99 -400 80z m1126 -3372 c106
-71 106 -203 0 -274 l-34 -23 -1005 0 -1004 0 -38 21 c-104 59 -105 217 -1
277 36 22 37 22 1042 22 l1006 0 34 -23z"
		/>
	</g>
</svg>