<svg
	xmlns="http://www.w3.org/2000/svg"
	viewBox="0 0 24 24"
	width="100%"
	height="100%"
	preserveAspectRatio="xMidYMid meet"
	fill="currentColor"
>
	<path d="M0.306672 11.8508C2.38415 10.6572 4.70328 9.66058 6.87011 8.65988C10.5976 7.01957 14.3403 5.4102 18.1206 3.90915C18.8567 3.6533 20.1777 3.40365 20.3077 4.54052C20.2366 6.14989 19.9452 7.74894 19.7442 9.34799C19.2365 12.8659 18.6486 16.3704 18.0759 19.877C17.8789 21.0448 16.4756 21.6493 15.578 20.9014C13.4214 19.3818 11.2474 17.8776 9.11817 16.323C8.41958 15.5833 9.0674 14.5217 9.68983 13.9945C11.4668 12.1685 13.3513 10.6169 15.0348 8.69702C15.4897 7.55293 14.1474 8.51752 13.7047 8.81257C11.2718 10.5602 8.89885 12.4151 6.335 13.9502C5.02516 14.7033 3.49802 14.0606 2.18818 13.6407C1.01439 13.1341 -0.705665 12.6235 0.306672 11.8508Z" />
</svg>